<svg width="536" height="375" viewBox="0 0 536 375" fill="none" xmlns="http://www.w3.org/2000/svg">
<path d="M0 373.388C0 373.871 0.388263 374.26 0.871759 374.26H535.128C535.612 374.26 536 373.871 536 373.388C536 372.904 535.612 372.516 535.128 372.516H0.871759C0.388263 372.516 0 372.904 0 373.388Z" fill="#3F3D58"/>
<path d="M322.778 57.9577L341.539 64.126V37.1161H324.514L322.778 57.9577Z" fill="#F8A8AB"/>
<path d="M339.217 44.5883C349.542 44.5883 357.912 36.2181 357.912 25.8931C357.912 15.568 349.542 7.19788 339.217 7.19788C328.892 7.19788 320.522 15.568 320.522 25.8931C320.522 36.2181 328.892 44.5883 339.217 44.5883Z" fill="#F8A8AB"/>
<path d="M334.455 27.3582L337.034 30.4863L341.693 22.3255C341.693 22.3255 347.641 22.6332 347.641 18.2158C347.641 13.7984 353.099 13.6738 353.099 13.6738C353.099 13.6738 360.828 0.179863 344.821 3.73283C344.821 3.73283 333.715 -3.87125 328.199 2.62665C328.199 2.62665 311.269 11.1538 316.112 25.9957L324.163 41.2991L325.987 37.834C325.987 37.834 324.88 23.2925 334.455 27.3436L334.455 27.3582Z" fill="#2F2E43"/>
<path d="M332.492 338.283H317.152V360.048H332.492V338.283Z" fill="#F8A8AB"/>
<path d="M330.792 372.516C328.17 372.751 315.042 373.791 314.383 370.78C313.782 368.018 314.668 365.132 314.793 364.736C316.053 352.18 316.522 352.041 316.808 351.96C317.254 351.828 318.558 352.451 320.676 353.814L320.807 353.902L320.837 354.055C320.873 354.253 321.811 358.861 326.258 358.15C329.305 357.667 330.294 356.993 330.609 356.663C330.353 356.546 330.03 356.341 329.803 355.989C329.474 355.477 329.415 354.817 329.635 354.026C330.206 351.938 331.92 348.854 331.994 348.73L332.192 348.378L349.627 360.143L360.395 363.22C361.209 363.454 361.861 364.033 362.19 364.81C362.644 365.894 362.366 367.154 361.487 367.945C359.531 369.703 355.648 372.714 351.568 373.088C350.484 373.19 349.048 373.227 347.436 373.227C340.704 373.227 330.873 372.531 330.8 372.516L330.792 372.516Z" fill="#2F2E43"/>
<path d="M352.081 150.643L311.841 148.584C311.841 148.584 305.672 171.968 313.467 196.333L314.405 343.06H337.144L358.579 191.703L352.081 150.643Z" fill="#2F2E43"/>
<path d="M345.297 52.7638L323.21 41.0427C323.21 41.0427 299.409 75.8251 302.698 94.6668C305.995 113.509 311.841 148.584 311.841 148.584L360.564 150.643L352.059 81.5685L345.297 52.7638Z" fill="#E2E3E4"/>
<path d="M343.407 338.283H328.067V360.048H343.407V338.283Z" fill="#F8A8AB"/>
<path d="M341.708 372.516C339.085 372.751 325.957 373.791 325.298 370.78C324.697 368.018 325.584 365.132 325.708 364.736C326.968 352.18 327.437 352.041 327.723 351.96C328.17 351.828 329.474 352.451 331.591 353.814L331.723 353.902L331.752 354.055C331.789 354.253 332.726 358.861 337.173 358.15C340.22 357.667 341.209 356.993 341.524 356.663C341.268 356.546 340.946 356.341 340.719 355.989C340.389 355.477 340.33 354.817 340.55 354.026C341.122 351.938 342.836 348.854 342.909 348.73L343.107 348.378L360.542 360.143L371.311 363.22C372.124 363.454 372.776 364.033 373.106 364.81C373.56 365.894 373.281 367.154 372.402 367.945C370.446 369.703 366.564 372.714 362.483 373.088C361.399 373.19 359.963 373.227 358.352 373.227C351.619 373.227 341.788 372.531 341.715 372.516L341.708 372.516Z" fill="#2F2E43"/>
<path d="M360.564 150.643L311.841 148.584C311.841 148.584 305.672 171.968 313.467 196.333L322.888 343.06H345.627L367.062 191.703L360.564 150.643Z" fill="#2F2E43"/>
<path d="M355.48 246.477C352.073 246.477 348.359 245.642 344.689 244.822C341.971 244.214 339.576 244.06 337.656 243.943C334.741 243.76 332.433 243.613 331.151 241.906C329.884 240.221 329.884 237.357 331.151 231.709C332.836 224.207 336.587 212.222 341.173 202.362C347.099 189.645 352.791 183.791 358.102 184.985C365.216 186.582 368.051 198.457 369.113 205.388C370.593 215.065 370.461 226.566 368.791 234.009C366.578 243.862 361.502 246.47 355.473 246.47L355.48 246.477ZM356.777 187.044C352.872 187.044 348.081 192.743 343.173 203.292C338.653 212.999 334.961 224.801 333.298 232.192C332.235 236.939 332.118 239.525 332.909 240.588C333.583 241.481 335.349 241.599 337.788 241.745C339.788 241.87 342.279 242.023 345.165 242.675C356.637 245.247 363.809 246.184 366.644 233.533C369.684 219.98 367.369 189.322 357.619 187.132C357.341 187.066 357.055 187.037 356.769 187.037L356.777 187.044Z" fill="#DFDFE0"/>
<path d="M401.874 337.573L292.611 338.291L275.637 330.481L285.527 229.599L295.475 230.104L397.837 235.313L401.874 337.573Z" fill="#2F8AC7"/>
<path opacity="0.2" d="M292.611 338.291L275.637 330.481L285.527 229.599L295.475 230.104L292.611 338.291Z" fill="#272223"/>
<path d="M357.128 227.87C355.099 227.87 352.879 227.372 350.696 226.881C349.077 226.515 347.649 226.427 346.499 226.354C344.762 226.244 343.385 226.156 342.623 225.138C341.869 224.134 341.869 222.427 342.623 219.057C343.627 214.581 345.861 207.439 348.601 201.564C352.132 193.981 355.531 190.494 358.696 191.205C362.937 192.157 364.63 199.234 365.26 203.373C366.139 209.146 366.066 216.002 365.069 220.435C363.751 226.31 360.725 227.863 357.128 227.863L357.128 227.87ZM357.905 192.436C355.575 192.436 352.718 195.835 349.795 202.128C347.099 207.915 344.894 214.948 343.913 219.358C343.275 222.185 343.209 223.731 343.686 224.361C344.088 224.896 345.136 224.962 346.594 225.05C347.788 225.123 349.268 225.218 350.989 225.606C357.824 227.138 362.102 227.694 363.795 220.156C365.604 212.076 364.227 193.798 358.418 192.494C358.249 192.458 358.081 192.436 357.912 192.436H357.905Z" fill="#DFDFE0"/>
<path d="M384.783 282.19L319.643 282.615L309.518 277.963L315.416 217.812L321.349 218.112L382.38 221.218L384.783 282.19Z" fill="#E2E3E4"/>
<path opacity="0.2" d="M319.643 282.615L309.518 277.963L315.416 217.812L321.349 218.112L319.643 282.615Z" fill="#272223"/>
<path d="M360.938 187.271C362.029 192.633 360.029 197.534 356.484 198.216C352.938 198.897 349.18 195.095 348.096 189.733C347.634 187.593 347.707 185.381 348.308 183.271L343.993 160.481L355.143 158.715L358.212 181.367C359.597 183.095 360.527 185.117 360.938 187.271Z" fill="#F8A8AB"/>
<path d="M317.203 52.3389C317.203 52.3389 333.51 50.273 335.459 55.1446C337.407 60.0162 360.308 175.975 360.308 175.975H345.202L317.203 52.3389Z" fill="#E2E3E4"/>
<path d="M203.904 77.1584L187.523 82.5428V58.9686H202.387L203.904 77.1584Z" fill="#F8A8AB"/>
<path d="M189.553 65.4959C198.567 65.4959 205.874 58.1884 205.874 49.1742C205.874 40.16 198.567 32.8525 189.553 32.8525C180.538 32.8525 173.231 40.16 173.231 49.1742C173.231 58.1884 180.538 65.4959 189.553 65.4959Z" fill="#F8A8AB"/>
<path d="M194.036 47.5552C191.303 47.4746 189.509 44.7128 188.446 42.1928C187.384 39.6727 186.293 36.7791 183.758 35.7388C181.685 34.8891 178.029 40.6397 176.396 39.1087C174.689 37.5117 176.352 29.3142 178.161 27.8417C179.971 26.3693 182.447 26.0836 184.776 25.9737C190.461 25.7099 196.182 26.1715 201.757 27.3363C205.208 28.0542 208.753 29.1384 211.244 31.6291C214.394 34.7938 215.2 39.5629 215.427 44.0242C215.661 48.5881 215.398 53.3645 213.178 57.357C210.958 61.3495 206.314 64.2944 201.86 63.2762C201.413 60.8587 201.867 58.3753 202.043 55.9138C202.211 53.4597 202.036 50.8078 200.534 48.8519C199.032 46.8959 195.831 46.1194 194.087 47.8556" fill="#2F2E43"/>
<path d="M214.116 53.2107C215.749 52.0166 217.705 51.0129 219.713 51.262C221.881 51.5257 223.72 53.3132 224.277 55.4303C224.833 57.5475 224.211 59.877 222.863 61.6059C221.522 63.3348 219.522 64.4776 217.412 65.049C216.189 65.3786 214.848 65.5178 213.684 65.0197C211.969 64.2798 211.039 62.0894 211.713 60.3459" fill="#2F2E43"/>
<path d="M198.497 339.492H183.157V361.257H198.497V339.492Z" fill="#F8A8AB"/>
<path d="M168.213 374.428C166.601 374.428 165.165 374.392 164.081 374.289C160.008 373.915 156.118 370.904 154.162 369.146C153.283 368.355 153.005 367.095 153.459 366.011C153.789 365.234 154.441 364.648 155.254 364.421L166.023 361.344L183.458 349.579L183.656 349.931C183.729 350.063 185.443 353.147 186.014 355.227C186.234 356.019 186.176 356.678 185.846 357.191C185.619 357.542 185.296 357.748 185.04 357.865C185.355 358.194 186.344 358.868 189.392 359.352C193.838 360.055 194.776 355.447 194.813 355.257L194.842 355.103L194.974 355.015C197.091 353.652 198.395 353.03 198.842 353.162C199.12 353.242 199.589 353.389 200.856 365.938C200.981 366.333 201.867 369.22 201.267 371.981C200.615 374.985 187.487 373.952 184.857 373.718C184.784 373.725 174.953 374.428 168.22 374.428L168.213 374.428Z" fill="#2F2E43"/>
<path d="M242.174 322.384L229.158 330.502L240.675 348.97L253.691 340.852L242.174 322.384Z" fill="#F8A8AB"/>
<path d="M224.885 371.447C223.082 371.447 221.427 371.227 220.247 371.022C219.09 370.817 218.182 369.894 217.991 368.736C217.859 367.901 218.101 367.059 218.672 366.436L226.181 358.129L234.752 338.921L235.104 339.111C235.236 339.184 238.32 340.891 239.91 342.356C240.518 342.913 240.818 343.506 240.803 344.114C240.796 344.539 240.635 344.876 240.474 345.118C240.913 345.235 242.107 345.279 244.95 344.078C249.096 342.327 247.455 337.917 247.382 337.734L247.323 337.587L247.389 337.448C248.466 335.17 249.235 333.954 249.689 333.829C249.975 333.749 250.444 333.624 258.158 343.609C258.473 343.873 260.751 345.858 261.704 348.517C262.737 351.411 251.052 357.484 248.7 358.671C248.627 358.729 236.401 367.615 231.375 370.143C229.383 371.146 227.024 371.454 224.877 371.454L224.885 371.447Z" fill="#2F2E43"/>
<path d="M209.794 157.485H166.843L162.946 197.439L180 345.067H201.926L193.157 259.803L228.723 336.781L248.21 323.141L220.438 251.276C220.438 251.276 230.357 188.67 222.562 173.074C214.768 157.477 209.794 157.485 209.794 157.485Z" fill="#2F2E43"/>
<path d="M231.155 159.917H162.946L183.406 71.73H213.127L231.155 159.917Z" fill="#2F8AC7"/>
<path d="M146.001 69.9939C144.91 64.6314 146.91 59.7305 150.455 59.0493C154.001 58.368 157.759 62.17 158.843 67.5324C159.305 69.6715 159.232 71.8839 158.631 73.9937L162.946 96.784L151.796 98.5495L148.727 75.8984C147.342 74.1695 146.412 72.1476 146.001 69.9939Z" fill="#F8A8AB"/>
<path d="M212.402 71.73H186.19L168.521 107.069L161.854 80.5868L147.21 82.1399C147.21 82.1399 150.675 133.881 165.817 132.13C180.96 130.38 216.277 83.7662 212.394 71.7227L212.402 71.73Z" fill="#2F8AC7"/>
<path d="M237.155 239.35C235.126 239.35 232.906 238.851 230.723 238.361C229.104 237.994 227.676 237.906 226.526 237.833C224.789 237.723 223.412 237.635 222.65 236.617C221.896 235.613 221.896 233.907 222.65 230.537C223.654 226.061 225.888 218.918 228.628 213.043C232.159 205.461 235.558 201.974 238.723 202.684C242.964 203.637 244.657 210.713 245.287 214.852C246.166 220.625 246.092 227.482 245.096 231.914C243.778 237.789 240.752 239.342 237.155 239.342L237.155 239.35ZM237.932 203.915C235.602 203.915 232.745 207.314 229.822 213.607C227.126 219.394 224.921 226.427 223.94 230.837C223.302 233.665 223.236 235.211 223.712 235.841C224.115 236.375 225.163 236.441 226.621 236.529C227.815 236.602 229.295 236.698 231.016 237.086C237.851 238.617 242.129 239.174 243.822 231.636C245.631 223.555 244.254 205.278 238.444 203.974C238.276 203.937 238.107 203.915 237.939 203.915H237.932Z" fill="#DFDFE0"/>
<path d="M264.817 293.662L199.677 294.087L189.553 289.435L195.45 229.284L201.384 229.584L262.414 232.691L264.817 293.662Z" fill="#E2E3E4"/>
<path opacity="0.2" d="M199.677 294.087L189.553 289.435L195.45 229.284L201.384 229.584L199.677 294.087Z" fill="#272223"/>
<path d="M241.668 206.12C242.759 211.483 240.759 216.383 237.214 217.065C233.668 217.746 229.91 213.944 228.826 208.582C228.364 206.442 228.438 204.23 229.038 202.12L224.723 179.33L235.873 177.565L238.943 200.216C240.327 201.944 241.258 203.966 241.668 206.12Z" fill="#F8A8AB"/>
<path d="M197.457 71.73C197.457 71.73 212.35 71.1 213.127 71.73C217.193 75.0486 241.038 194.831 241.038 194.831H225.932L197.457 71.73Z" fill="#2F8AC7"/>
</svg>
